<svg xmlns="http://www.w3.org/2000/svg" width="20.377" height="17.466" viewBox="0 0 20.377 17.466">
  <g id="All_Project_enable" data-name="All Project enable" transform="translate(-2 -4)">
    <path id="Path_13549" data-name="Path 13549" d="M22.245,10.127a.728.728,0,0,0-.6-.306h-.728V7.639a.728.728,0,0,0-.728-.728H12.552l-1.965-2.62A.728.728,0,0,0,10,4H2.728A.728.728,0,0,0,2,4.728v16.01a.808.808,0,0,0,.131.444.728.728,0,0,0,.6.284H18.01a.728.728,0,0,0,.684-.48L22.333,10.8A.728.728,0,0,0,22.245,10.127ZM3.455,5.455H9.641l1.965,2.62a.728.728,0,0,0,.582.291h7.277V9.822H6.366a.728.728,0,0,0-.684.48L3.455,16.539ZM17.493,20.01H3.761l3.122-8.733H20.615Z" transform="translate(0)" fill="#fff"/>
  </g>
</svg>
