<?xml version="1.0" encoding="utf-8"?>
<!-- Generator: Adobe Illustrator 26.0.3, SVG Export Plug-In . SVG Version: 6.00 Build 0)  -->
<svg version="1.1" id="Layer_1" xmlns="http://www.w3.org/2000/svg" xmlns:xlink="http://www.w3.org/1999/xlink" x="0px" y="0px"
	 viewBox="0 0 800 300" style="enable-background:new 0 0 800 300;" xml:space="preserve">
<style type="text/css">
	.st0{fill:#62C8D7;stroke:#62C8D7;stroke-miterlimit:10;}
	.st1{fill:#62C8D7;}
</style>
<g>
	<path class="st0" d="M365.7,188.3l-4.1-10.3c-0.2-0.5-0.7-0.9-1.3-0.9h-31.8c-0.6,0-1.1,0.3-1.3,0.9l-4.1,10.3
		c-0.2,0.5-0.7,0.9-1.3,0.9h-14.7c-1,0-1.7-0.9-1.3-1.8l28.1-67.2c0.2-0.5,0.7-0.8,1.3-0.8h18.3c0.6,0,1.1,0.3,1.3,0.8l28.1,67.2
		c0.4,0.9-0.3,1.8-1.3,1.8h-14.5C366.5,189.2,365.9,188.8,365.7,188.3z M343.1,135.6l-10.6,26.9c-0.3,0.9,0.3,1.8,1.3,1.8h21
		c1,0,1.7-0.9,1.3-1.8l-10.5-26.9C345.3,134.5,343.5,134.5,343.1,135.6z"/>
	<path class="st0" d="M455.2,187.6L421,143.2c-0.5-0.7-1.7-0.3-1.7,0.5v43.4c0,0.5-0.4,0.8-0.9,0.8h-14.3c-0.5,0-0.9-0.4-0.9-0.8
		v-68.2c0-0.5,0.4-0.8,0.9-0.8h15.2c0.3,0,0.6,0.1,0.7,0.4l33.1,42.7c0.5,0.7,1.7,0.3,1.7-0.5v-41.8c0-0.5,0.4-0.8,0.9-0.8H470
		c0.5,0,0.9,0.4,0.9,0.8v68.2c0,0.5-0.4,0.8-0.9,0.8h-14.1C455.6,188,455.4,187.9,455.2,187.6z"/>
	<path class="st0" d="M545.6,188.9l-34.7-45c-0.4-0.5-1.2-0.2-1.2,0.4v44.3c0,0.3-0.3,0.6-0.7,0.6h-14.8c-0.4,0-0.7-0.3-0.7-0.6V120
		c0-0.3,0.3-0.6,0.7-0.6h15.5c0.2,0,0.4,0.1,0.6,0.3l33.6,43.4c0.4,0.5,1.2,0.2,1.2-0.4v-42.6c0-0.3,0.3-0.6,0.7-0.6h14.8
		c0.4,0,0.7,0.3,0.7,0.6v68.6c0,0.3-0.3,0.6-0.7,0.6h-14.5C545.9,189.2,545.7,189.1,545.6,188.9z"/>
	<path class="st0" d="M642.6,188.3l-4.1-10.3c-0.2-0.5-0.7-0.9-1.3-0.9h-31.8c-0.6,0-1.1,0.3-1.3,0.9l-4.1,10.3
		c-0.2,0.5-0.7,0.9-1.3,0.9h-14.8c-1,0-1.7-0.9-1.3-1.8l28.2-67.2c0.2-0.5,0.7-0.8,1.3-0.8h18.3c0.6,0,1.1,0.3,1.3,0.8l28.1,67.2
		c0.4,0.9-0.3,1.8-1.3,1.8h-14.6C643.3,189.2,642.8,188.8,642.6,188.3z M619.9,135.6l-10.6,26.9c-0.3,0.9,0.3,1.8,1.3,1.8h21
		c1,0,1.7-0.9,1.3-1.8l-10.5-26.9C622.1,134.5,620.4,134.5,619.9,135.6z"/>
</g>
<g>
	<g>
		<path class="st1" d="M180.8,208c-1.5,0-2.9-0.3-4.3-0.9c-1.7-0.8-3.2-1.9-4.3-3.5l-48-65.2c-0.3-0.5-0.6-1-0.7-1.5
			c-1.1-2.6-1.1-5.7,0.1-8.4l32.1-73.3c1.5-3.5,4.8-5.9,8.6-6.3l81-9c0.1,0,0.3,0,0.4,0h0.3c2.4,0,4.7,1,6.3,2.8
			c0.1,0.1,0.3,0.3,0.4,0.5l48.3,65.6c2.3,3.1,2.7,7.1,1.2,10.6l-32.1,73.3c-1.2,2.7-3.4,4.8-6.2,5.7c-0.4,0.2-1,0.4-1.5,0.5
			l-79.3,8.8H183l-1.1,0.1C181.5,207.9,181.1,208,180.8,208z M178,202.4c0.1,0.2,0.2,0.3,0.3,0.4c0,0,0.1,0.1,0.3,0.1
			c0.1,0,0.2,0,0.3-0.1l61.9-27.3l-84.7-37.1L178,202.4z M191.5,202.2l69.5-7.7c0.1,0,0.2,0,0.2,0l-15.3-16.2L191.5,202.2z
			 M128.4,136.4l41.4,56.3l-19.2-56.2l-22.3-0.3C128.3,136.3,128.4,136.4,128.4,136.4z M263.7,190.5c0.3,0.3,0.7,0.5,1.1,0.5
			c0.1,0,0.2,0,0.3,0c0.5-0.1,0.9-0.4,1.1-0.9l28-64l-44.6,49.4L263.7,190.5z M243.7,171.7c0-0.1-0.1-0.3-0.1-0.5l-10.4-93.7
			l-76.3,56.1l0,0L243.7,171.7C243.6,171.7,243.6,171.7,243.7,171.7z M248.1,170.1l49.8-54.8c0.2-0.2,0.2-0.5,0.2-0.6
			s-0.1-0.4-0.4-0.5l-59.9-36.3L248.1,170.1z M127.8,130.2c-0.1,0.3-0.1,0.7,0.1,1c0.2,0.3,0.5,0.5,0.9,0.5l21.4,0.2l6-66.4
			L127.8,130.2z M162.2,54.8c-0.1,0-0.3,0.1-0.3,0.1c-0.1,0.1-0.2,0.2-0.2,0.4l-6.6,74l74.8-55l-67.5-19.5
			C162.3,54.8,162.3,54.8,162.2,54.8z M293.3,106.1l-44-59.7l-11.4,26.1L293.3,106.1z M233.7,70.6l11.5-26.1l-21.4,2.4l-52.3,5.8
			l60.4,17.4L233.7,70.6z"/>
		<path class="st1" d="M245.7,40.4c0.1,0,0.1,0,0.2,0h0.1c2.3,0,4.4,1,5.9,2.7c0.1,0.1,0.3,0.3,0.4,0.4l0.1,0.1l0,0l48.2,65.5
			c2.1,2.9,2.6,6.8,1.1,10.1l-0.5,1.2L270,191.6l-0.4,0.8c-1.1,2.6-3.3,4.5-5.9,5.5c-0.4,0.2-0.9,0.4-1.4,0.5l-79.2,8.8l0,0l0,0l0,0
			l-1.2,0.1c-0.4,0-0.7,0.1-1.1,0.1c-1.4,0-2.8-0.3-4.1-0.9c-1.6-0.7-3-1.8-4.1-3.3l-0.7-1l0,0l-35-47.6l-11.7-15.9l0,0l-0.5-0.7
			c-0.3-0.4-0.5-0.9-0.6-1.3c-1.1-2.5-1.1-5.5,0-8l0.1-0.2l31.5-71.9l0.5-1.2c1.5-3.3,4.6-5.6,8.2-6l80.8-9l0,0h0.1
			C245.4,40.4,245.5,40.4,245.7,40.4 M233.9,71.2c0.1,0,0.1,0,0.2-0.1l11.8-26.9c0,0,0-0.1,0-0.2c0,0,0,0-0.1-0.1l0,0l0,0l0,0
			c-0.1,0-0.1,0-0.2,0l-21.9,2.4l-54.8,6.2l62.8,18.1l0,0L233.9,71.2L233.9,71.2 M295.2,107.8l-45.7-62.1c0-0.1-0.1-0.1-0.1-0.2l0,0
			c0,0,0,0-0.1,0l0,0c-0.1,0-0.1,0.1-0.1,0.1l-11.9,26.9c0,0.1,0,0.2,0.1,0.2l1.9,1.2l0,0l14.4,8.8L295.2,107.8 M154.5,130.4
			l76.2-56.1c0,0,0.1-0.1,0.1-0.2c0-0.1-0.1-0.1-0.1-0.1l-63-18.1l-5.2-1.5c-0.1,0-0.2,0-0.3,0c-0.3,0-0.5,0.1-0.6,0.2
			c-0.2,0.1-0.4,0.3-0.5,0.8L154.5,130.4 M150.4,132.4c0.1,0,0.2-0.1,0.2-0.2l6.3-69.7l-15.8,36.1l-2.8,6.3l-11,25
			c-0.2,0.5-0.2,1,0.1,1.5c0.3,0.4,0.8,0.7,1.3,0.7l16.6,0.2L150.4,132.4L150.4,132.4 M244,172.4C244,172.4,244.1,172.4,244,172.4
			c0.2-0.1,0.2-0.2,0.2-0.2c0-0.1,0-0.3,0-0.4c0-0.2-0.1-0.4-0.1-0.6l-10.4-93.7c0-0.1,0-0.3,0-0.4s0-0.1,0-0.2c0,0,0-0.1-0.1-0.1
			h-0.1h-0.1c-0.1,0-0.1,0.1-0.2,0.1c-0.1,0.1-0.2,0.2-0.3,0.2l-76.7,56.4c0,0-0.1,0.1-0.1,0.2c0,0.1,0.1,0.1,0.1,0.1
			c0.2,0.1,0.3,0.2,0.4,0.3l86.8,38C243.6,172.2,243.8,172.3,244,172.4L244,172.4 M247.8,171c0.1,0,0.1,0,0.1-0.1l50.3-55.3
			c0.3-0.4,0.3-0.8,0.3-1s-0.2-0.6-0.6-0.9l-27.8-16.9L237.5,77l0,0c0,0,0,0-0.1,0h-0.1c-0.1,0.1-0.1,0.1-0.1,0.2l10.4,93.7
			C247.7,170.9,247.7,170.9,247.8,171L247.8,171 M264.8,191.5c0.1,0,0.2,0,0.4,0c0.7-0.1,1.2-0.5,1.5-1.2l14.3-32.7l14.9-34.1
			l-47,51.9l0,0c-0.1,0.1-0.1,0.2,0,0.2l14.4,15.2C263.8,191.2,264.3,191.5,264.8,191.5 M171.4,195.7l-14-41l-6.4-18.5
			c0-0.1-0.1-0.1-0.2-0.1h-0.4l0,0l-21.7-0.3l0,0h-1.1l0,0c0,0-0.1,0-0.1,0.1c0.2,0.3,0.3,0.6,0.5,0.9l14.5,19.7l4.2,5.8
			L171.4,195.7 M178.6,203.3c0.1,0,0.3,0,0.5-0.1l2.6-1.1l0,0l35-15.4l25.3-11.1l-86.7-38l17.4,50.8l4,11.6l0,0l0.9,2.7
			c0.1,0.4,0.4,0.6,0.6,0.7C178.2,203.3,178.4,203.3,178.6,203.3 M188.3,203.1L261,195c0.4,0,0.7-0.1,1-0.2c0-0.1,0-0.1,0-0.2
			l-1.2-1.3l0,0l-14.4-15.2l0,0l-0.3-0.3l-0.1-0.1c0,0,0,0-0.1,0L188.3,203.1 M245.7,39.4c-0.2,0-0.3,0-0.5,0h-0.1l0,0l-80.8,9
			c-4,0.4-7.4,3-9,6.6l-0.5,1.2l-31.5,71.9l-0.1,0.2c-1.2,2.8-1.2,5.9-0.1,8.8c0.2,0.6,0.4,1.1,0.8,1.6l0.5,0.7l0,0l11.7,15.9
			l35,47.6l0,0l0.7,0.9c1.2,1.6,2.7,2.8,4.5,3.6c1.4,0.6,2.9,0.9,4.5,0.9c0.4,0,0.8,0,1.2-0.1l1.2-0.1l0,0l79.3-8.8
			c0.6-0.1,1.2-0.2,1.7-0.5c2.9-1.1,5.2-3.2,6.4-6l0.4-0.8l31.2-71.2l0.5-1.2c1.6-3.6,1.1-7.9-1.2-11.1L253.3,43l0,0l-0.1-0.1
			c-0.1-0.2-0.3-0.4-0.5-0.5c-1.7-1.9-4.1-3-6.7-3h-0.1C245.8,39.4,245.7,39.4,245.7,39.4L245.7,39.4z M174,52.9l49.8-5.5l20.6-2.3
			L233.5,70l-1.5-0.4l0,0L174,52.9L174,52.9z M238.6,72.3l10.9-24.9l41.9,57l-37.1-22.6L239.9,73l0,0L238.6,72.3L238.6,72.3z
			 M155.7,128.3l6.5-72.9l0,0l5.2,1.5l61.4,17.6L155.7,128.3L155.7,128.3z M149.7,131.4h-4.3l-16.6-0.2c-0.2,0-0.3-0.1-0.5-0.2
			c-0.1-0.2-0.1-0.3,0-0.5l11-25l2.8-6.3l13.3-30.7L149.7,131.4L149.7,131.4z M157.9,133.6l74.9-55.1l10.3,92.4L157.9,133.6
			L157.9,133.6z M248.4,168.9l-10-90.2l31.2,18.9l27.8,16.9c0,0,0.1,0.1,0.1,0.2s0,0.2-0.1,0.2L248.4,168.9L248.4,168.9z
			 M250.2,175.4l42.3-46.8L280,157l-14.3,32.7c-0.1,0.3-0.4,0.5-0.8,0.6c-0.1,0-0.1,0-0.2,0c-0.3,0-0.5-0.1-0.7-0.3L250.2,175.4
			L250.2,175.4z M168.3,189.8l-20.8-28.2l-4.2-5.8l-14-19.1l21,0.2l6.2,18L168.3,189.8L168.3,189.8z M178.6,202.3
			C178.6,202.3,178.5,202.3,178.6,202.3c-0.1,0-0.1-0.1-0.1-0.1l-0.9-2.7l-4-11.6L157,139.3l82.6,36.2l-23.3,10.2l-35,15.4l0,0
			L178.6,202.3L178.6,202.3L178.6,202.3z M194.7,201.4l51.1-22.5l14.3,15.1l0,0l0.1,0.1L194.7,201.4L194.7,201.4z"/>
	</g>
	<g>
		<path class="st1" d="M224.1,150.1c-0.4,0-0.7-0.1-1.1-0.2c-0.9-0.4-1.5-1.3-1.6-2.2l-0.3-4.6L193.4,131l-3.6,2.9
			c-0.4,0.4-1,0.6-1.6,0.6c-0.4,0-0.7-0.1-1.1-0.2c-0.9-0.4-1.5-1.2-1.6-2.1c-0.1-0.8,0.2-1.7,0.9-2.2l30.5-24.1
			c0.4-0.4,1-0.5,1.6-0.5c0.4,0,0.7,0.1,1.1,0.2l2.4,1.1c0.9,0.4,1.5,1.2,1.6,2.2l2.9,38.7c0.1,0.7-0.2,1.3-0.6,1.8
			C225.5,149.8,224.8,150.1,224.1,150.1L224.1,150.1z M220.7,137.3l-1.6-23.8c-0.1-1-0.9-1.5-1.7-1.5c-0.4,0-0.7,0.1-1,0.3l-18.5,15
			L220.7,137.3z"/>
		<path class="st1" d="M218.5,105.7c0.3,0,0.6,0.1,0.9,0.2l2.4,1.1c0.7,0.3,1.2,1,1.3,1.8l2.9,38.7c0.1,1.2-0.9,2.1-2,2.1
			c-0.3,0-0.6-0.1-0.9-0.2l0,0c-0.7-0.3-1.2-1-1.3-1.8l-0.3-4.9l-28.2-12.4l-3.8,3.1c-0.4,0.3-0.8,0.5-1.3,0.5
			c-0.3,0-0.6-0.1-0.9-0.2c-1.5-0.6-1.8-2.5-0.6-3.4l30.5-24.1C217.6,105.9,218,105.7,218.5,105.7 M221.2,138.1l-1.6-24.6
			c-0.1-1.2-1.1-2-2.2-2c-0.5,0-0.9,0.1-1.3,0.5l-19.2,15.5L221.2,138.1 M218.5,104.7c-0.7,0-1.4,0.2-1.9,0.7l-30.5,24.1
			c-0.8,0.6-1.2,1.6-1.1,2.7c0.1,1.1,0.8,2,1.9,2.5c0.4,0.2,0.9,0.3,1.3,0.3c0.7,0,1.4-0.2,1.9-0.7l3.3-2.7l27.1,11.9l0.3,4.3
			c0.1,1.2,0.8,2.2,1.9,2.6c0.4,0.2,0.9,0.3,1.3,0.3c0.9,0,1.7-0.4,2.2-1c0.6-0.6,0.8-1.4,0.8-2.2l-2.9-38.7
			c-0.1-1.1-0.8-2.1-1.9-2.6l-2.4-1.1C219.4,104.8,218.9,104.7,218.5,104.7L218.5,104.7z M198.8,127.2l17.9-14.5
			c0.2-0.2,0.4-0.2,0.7-0.2c0.5,0,1.2,0.4,1.2,1.1l1.6,23L198.8,127.2L198.8,127.2z"/>
	</g>
</g>
<g>
	<path class="st1" d="M43.7,259.3c-0.1,0-0.2-0.1-0.2-0.2l-2-4.7H31.2l-2,4.7c0,0.1-0.1,0.2-0.2,0.2h-4c-0.1,0-0.2,0-0.2-0.1
		s-0.1-0.2,0-0.2l9.5-21.1c0-0.1,0.1-0.1,0.2-0.1h3.9c0.1,0,0.2,0.1,0.2,0.1l9.5,21.1c0,0.1,0,0.2,0,0.2s-0.1,0.1-0.2,0.1H43.7z
		 M39.9,250.8l-3.6-8.3l-3.6,8.3H39.9z"/>
	<path class="st1" d="M38.2,238l9.5,21.1h-4.1l-2.1-4.9H31l-2.1,4.9h-4l9.5-21.1H38.2 M32.3,251.1h7.9l-4-9.2L32.3,251.1
		 M38.2,237.5h-3.9c-0.2,0-0.4,0.1-0.5,0.3l-9.5,21.1c-0.1,0.2-0.1,0.3,0,0.5c0.1,0.1,0.3,0.2,0.4,0.2h4c0.2,0,0.4-0.1,0.5-0.3
		l1.9-4.6H41l2,4.6c0.1,0.2,0.3,0.3,0.5,0.3h4.1c0.2,0,0.3-0.1,0.4-0.2c0.1-0.1,0.1-0.3,0-0.5l-9.5-21.1
		C38.6,237.6,38.4,237.5,38.2,237.5L38.2,237.5z M33.1,250.6l3.2-7.5l3.2,7.5H33.1L33.1,250.6z"/>
</g>
<g>
	<path class="st1" d="M59.1,259.6c-6,0-9.5-3.5-9.5-9.7V238c0-0.1,0.1-0.2,0.2-0.2h3.9c0.1,0,0.2,0.1,0.2,0.2v11.7c0,4,1.7,6,5.1,6
		c3.4,0,5.1-1.9,5.1-6V238c0-0.1,0.1-0.2,0.2-0.2h3.9c0.1,0,0.2,0.1,0.2,0.2v11.9C68.5,256.1,65.1,259.6,59.1,259.6z"/>
	<path class="st1" d="M68.3,238v11.9c0,6.1-3.5,9.5-9.2,9.5c-5.8,0-9.2-3.3-9.2-9.5V238h3.9v11.7c0,4.3,2,6.2,5.4,6.2
		c3.4,0,5.3-1.9,5.3-6.2V238H68.3 M68.3,237.5h-3.9c-0.3,0-0.5,0.2-0.5,0.5v11.7c0,3.9-1.5,5.7-4.8,5.7s-4.9-1.8-4.9-5.7V238
		c0-0.3-0.2-0.5-0.5-0.5h-3.9c-0.3,0-0.5,0.2-0.5,0.5v11.9c0,6.3,3.6,10,9.7,10c6.2,0,9.7-3.6,9.7-10V238
		C68.8,237.7,68.6,237.5,68.3,237.5L68.3,237.5z"/>
</g>
<g>
	<path class="st1" d="M77.6,259.3c-0.1,0-0.2-0.1-0.2-0.2v-17.5h-6.7c-0.1,0-0.2-0.1-0.2-0.2v-3.3c0-0.1,0.1-0.2,0.2-0.2h17.9
		c0.1,0,0.2,0.1,0.2,0.2v3.3c0,0.1-0.1,0.2-0.2,0.2h-6.7v17.5c0,0.1-0.1,0.2-0.2,0.2H77.6z"/>
	<path class="st1" d="M88.5,238v3.3h-7v17.8h-3.9v-17.8h-7V238H88.5 M88.5,237.5H70.7c-0.3,0-0.5,0.2-0.5,0.5v3.3
		c0,0.3,0.2,0.5,0.5,0.5h6.4v17.3c0,0.3,0.2,0.5,0.5,0.5h3.9c0.3,0,0.5-0.2,0.5-0.5v-17.3h6.5c0.3,0,0.5-0.2,0.5-0.5V238
		C89,237.7,88.8,237.5,88.5,237.5L88.5,237.5z"/>
</g>
<g>
	<path class="st1" d="M101,259.6c-6.7,0-11.6-4.7-11.6-11.1s4.9-11.1,11.6-11.1s11.6,4.7,11.6,11.1S107.8,259.6,101,259.6z
		 M101,241.3c-4.1,0-7.2,3-7.2,7.2s3,7.2,7.2,7.2c4.1,0,7.2-3,7.2-7.2S105.2,241.3,101,241.3z"/>
	<path class="st1" d="M101,237.7c6.5,0,11.4,4.6,11.4,10.8s-4.8,10.8-11.4,10.8c-6.5,0-11.4-4.6-11.4-10.8
		C89.7,242.3,94.5,237.7,101,237.7 M101,255.9c4.2,0,7.4-3.1,7.4-7.4s-3.2-7.4-7.4-7.4s-7.4,3.1-7.4,7.4S96.8,255.9,101,255.9
		 M101,237.2c-6.8,0-11.9,4.9-11.9,11.3c0,6.5,5.1,11.3,11.9,11.3c6.9,0,11.9-4.8,11.9-11.3C112.9,241.9,107.9,237.2,101,237.2
		L101,237.2z M101,255.4c-4,0-6.9-2.9-6.9-6.9s2.9-6.9,6.9-6.9s6.9,2.9,6.9,6.9C108,252.5,105,255.4,101,255.4L101,255.4z"/>
</g>
<g>
	<path class="st1" d="M132.1,259.3c-0.1,0-0.1,0-0.2-0.1l-11.2-13.7v13.6c0,0.1-0.1,0.2-0.2,0.2h-3.9c-0.1,0-0.2-0.1-0.2-0.2V238
		c0-0.1,0.1-0.2,0.2-0.2h3.2c0.1,0,0.1,0,0.2,0.1l11.2,13.7V238c0-0.1,0.1-0.2,0.2-0.2h3.9c0.1,0,0.2,0.1,0.2,0.2v21.1
		c0,0.1-0.1,0.2-0.2,0.2H132.1z"/>
	<path class="st1" d="M135.3,238v21.1h-3.2l-11.6-14.3v14.3h-3.9V238h3.2l11.6,14.3V238H135.3 M135.3,237.5h-3.9
		c-0.3,0-0.5,0.2-0.5,0.5v12.9l-10.7-13.2c-0.1-0.1-0.2-0.2-0.4-0.2h-3.2c-0.3,0-0.5,0.2-0.5,0.5v21.1c0,0.3,0.2,0.5,0.5,0.5h3.9
		c0.3,0,0.5-0.2,0.5-0.5v-12.9l10.7,13.2c0.1,0.1,0.2,0.2,0.4,0.2h3.2c0.3,0,0.5-0.2,0.5-0.5V238
		C135.8,237.7,135.6,237.5,135.3,237.5L135.3,237.5z"/>
</g>
<g>
	<path class="st1" d="M150.8,259.6c-6.7,0-11.6-4.7-11.6-11.1s4.9-11.1,11.6-11.1s11.6,4.7,11.6,11.1S157.5,259.6,150.8,259.6z
		 M150.8,241.3c-4.1,0-7.2,3-7.2,7.2s3,7.2,7.2,7.2c4.1,0,7.2-3,7.2-7.2S155,241.3,150.8,241.3z"/>
	<path class="st1" d="M150.8,237.7c6.5,0,11.4,4.6,11.4,10.8s-4.8,10.8-11.4,10.8c-6.5,0-11.4-4.6-11.4-10.8
		C139.4,242.3,144.3,237.7,150.8,237.7 M150.8,255.9c4.2,0,7.4-3.1,7.4-7.4s-3.2-7.4-7.4-7.4c-4.2,0-7.4,3.1-7.4,7.4
		C143.4,252.8,146.6,255.9,150.8,255.9 M150.8,237.2c-6.8,0-11.9,4.9-11.9,11.3c0,6.5,5.1,11.3,11.9,11.3c6.9,0,11.9-4.8,11.9-11.3
		C162.7,241.9,157.7,237.2,150.8,237.2L150.8,237.2z M150.8,255.4c-4,0-6.9-2.9-6.9-6.9s2.9-6.9,6.9-6.9s6.9,2.9,6.9,6.9
		C157.7,252.5,154.8,255.4,150.8,255.4L150.8,255.4z"/>
</g>
<g>
	<path class="st1" d="M185.7,259.3c-0.1,0-0.2-0.1-0.2-0.2V246l-6.5,10.8c0,0.1-0.1,0.1-0.2,0.1h-1.7c-0.1,0-0.2,0-0.2-0.1
		l-6.5-10.6v12.9c0,0.1-0.1,0.2-0.2,0.2h-3.7c-0.1,0-0.2-0.1-0.2-0.2V238c0-0.1,0.1-0.2,0.2-0.2h3.2c0.1,0,0.2,0,0.2,0.1l8.2,13.6
		l8-13.6c0-0.1,0.1-0.1,0.2-0.1h3.2c0.1,0,0.2,0.1,0.2,0.2v21.1c0,0.1,0,0.1-0.1,0.2s-0.1,0.1-0.2,0.1L185.7,259.3L185.7,259.3z"/>
	<path class="st1" d="M189.4,238v21.1h-3.7v-14l-6.9,11.6h-1.7l-6.9-11.4v13.8h-3.7V238h3.2l8.4,14l8.2-14H189.4 M189.4,237.5h-3.3
		c-0.2,0-0.3,0.1-0.4,0.2l-7.8,13.3l-7.9-13.3c-0.1-0.2-0.3-0.2-0.4-0.2h-3.2c-0.3,0-0.5,0.2-0.5,0.5v21.1c0,0.3,0.2,0.5,0.5,0.5
		h3.7c0.3,0,0.5-0.2,0.5-0.5v-12l6,9.9c0.1,0.1,0.3,0.2,0.4,0.2h1.7c0.2,0,0.3-0.1,0.4-0.2l6-10v12.2c0,0.3,0.2,0.5,0.5,0.5h3.7
		c0.1,0,0.3-0.1,0.4-0.1c0.1-0.1,0.1-0.2,0.1-0.4v-21.1C189.9,237.7,189.6,237.5,189.4,237.5L189.4,237.5z"/>
</g>
<g>
	<path class="st1" d="M204.9,259.6c-6.7,0-11.6-4.7-11.6-11.1s4.9-11.1,11.6-11.1s11.6,4.7,11.6,11.1S211.7,259.6,204.9,259.6z
		 M204.9,241.3c-4.1,0-7.2,3-7.2,7.2s3,7.2,7.2,7.2c4.1,0,7.2-3,7.2-7.2S209.1,241.3,204.9,241.3z"/>
	<path class="st1" d="M204.9,237.7c6.5,0,11.4,4.6,11.4,10.8s-4.8,10.8-11.4,10.8s-11.4-4.6-11.4-10.8
		C193.6,242.3,198.4,237.7,204.9,237.7 M204.9,255.9c4.2,0,7.4-3.1,7.4-7.4s-3.2-7.4-7.4-7.4s-7.4,3.1-7.4,7.4
		C197.5,252.8,200.7,255.9,204.9,255.9 M204.9,237.2c-6.8,0-11.9,4.9-11.9,11.3c0,6.5,5.1,11.3,11.9,11.3c6.9,0,11.9-4.8,11.9-11.3
		C216.8,241.9,211.8,237.2,204.9,237.2L204.9,237.2z M204.9,255.4c-4,0-6.9-2.9-6.9-6.9s2.9-6.9,6.9-6.9s6.9,2.9,6.9,6.9
		C211.8,252.5,208.9,255.4,204.9,255.4L204.9,255.4z"/>
</g>
<g>
	<path class="st1" d="M229.5,259.6c-6,0-9.5-3.5-9.5-9.7V238c0-0.1,0.1-0.2,0.2-0.2h3.9c0.1,0,0.2,0.1,0.2,0.2v11.7c0,4,1.7,6,5.1,6
		c3.4,0,5.1-1.9,5.1-6V238c0-0.1,0.1-0.2,0.2-0.2h3.9c0.1,0,0.2,0.1,0.2,0.2v11.9C239,256.1,235.5,259.6,229.5,259.6z"/>
	<path class="st1" d="M238.7,238v11.9c0,6.1-3.5,9.5-9.2,9.5c-5.8,0-9.2-3.3-9.2-9.5V238h3.9v11.7c0,4.3,2,6.2,5.4,6.2
		s5.3-1.9,5.3-6.2V238H238.7 M238.7,237.5h-3.9c-0.3,0-0.5,0.2-0.5,0.5v11.7c0,3.9-1.5,5.7-4.8,5.7s-4.9-1.8-4.9-5.7V238
		c0-0.3-0.2-0.5-0.5-0.5h-3.9c-0.3,0-0.5,0.2-0.5,0.5v11.9c0,6.3,3.6,10,9.7,10c6.2,0,9.7-3.6,9.7-10V238
		C239.2,237.7,239,237.5,238.7,237.5L238.7,237.5z"/>
</g>
<g>
	<path class="st1" d="M250.7,259.6c-3.3,0-6.7-1-8.5-2.6c-0.1-0.1-0.1-0.2-0.1-0.3l1.4-3c0-0.1,0.1-0.1,0.2-0.1c0,0,0,0,0.1,0
		s0.1,0,0.2,0.1c1.7,1.4,4.4,2.3,6.8,2.3c2.9,0,4.4-0.9,4.4-2.5c0-1.8-2.2-2.3-4.8-2.9c-3.4-0.8-7.7-1.8-7.7-6.5
		c0-3,2.3-6.5,8.7-6.5c2.7,0,5.3,0.7,7.2,1.9c0.1,0.1,0.1,0.2,0.1,0.3l-1.2,3c0,0.1-0.1,0.1-0.2,0.1h-0.1h-0.1
		c-1.8-1-3.8-1.6-5.7-1.6c-2.8,0-4.3,1-4.3,2.6c0,1.7,2.2,2.3,4.8,2.9c3.4,0.8,7.7,1.8,7.7,6.4C259.5,256.1,257.2,259.6,250.7,259.6
		z"/>
	<path class="st1" d="M251.4,237.7c2.5,0,5.2,0.7,7,1.9l-1.2,3c-1.9-1.1-4-1.7-5.8-1.7c-3.3,0-4.6,1.3-4.6,2.9
		c0,4.5,12.5,1.6,12.5,9.3c0,3.4-2.7,6.3-8.5,6.3c-3.3,0-6.6-1-8.3-2.5l1.4-3c1.7,1.4,4.4,2.3,7,2.3c3.3,0,4.7-1.2,4.7-2.7
		c0-4.5-12.5-1.6-12.5-9.4C242.9,240.6,245.6,237.7,251.4,237.7 M251.4,237.2c-6.6,0-9,3.7-9,6.8c0,4.8,4.4,5.9,7.9,6.7
		c2.9,0.7,4.6,1.2,4.6,2.7c0,2-2.6,2.2-4.2,2.2c-2.4,0-5-0.9-6.6-2.2c-0.1-0.1-0.2-0.1-0.3-0.1h-0.1c-0.2,0-0.3,0.1-0.3,0.3l-1.4,3
		c-0.1,0.2,0,0.4,0.1,0.6c1.9,1.6,5.3,2.7,8.6,2.7c6.7,0,9-3.6,9-6.8c0-4.8-4.4-5.8-7.9-6.7c-2.9-0.7-4.6-1.2-4.6-2.6
		c0-1.5,1.4-2.4,4.1-2.4c1.8,0,3.8,0.6,5.6,1.6c0.1,0,0.2,0.1,0.3,0.1s0.1,0,0.2,0s0.2-0.2,0.3-0.3l1.2-3c0.1-0.2,0-0.5-0.2-0.6
		C256.8,237.9,254.1,237.2,251.4,237.2L251.4,237.2z"/>
</g>
<g>
	<path class="st1" d="M295.9,258.6c-0.1,0-0.1,0-0.2-0.1l-11.2-13.7v13.6c0,0.1-0.1,0.2-0.2,0.2h-3.9c-0.1,0-0.2-0.1-0.2-0.2v-21.1
		c0-0.1,0.1-0.2,0.2-0.2h3.2c0.1,0,0.1,0,0.2,0.1l11.2,13.6v-13.6c0-0.1,0.1-0.2,0.2-0.2h3.9c0.1,0,0.2,0.1,0.2,0.2v21.1
		c0,0.1-0.1,0.2-0.2,0.2L295.9,258.6L295.9,258.6z"/>
	<path class="st1" d="M299.1,237.3v21.1h-3.2l-11.6-14.3v14.3h-3.9v-21.1h3.2l11.6,14.3v-14.3L299.1,237.3 M299.1,236.8h-3.9
		c-0.3,0-0.5,0.2-0.5,0.5v12.9L284,236.9c-0.1-0.1-0.2-0.1-0.4-0.1h-3.2c-0.3,0-0.5,0.2-0.5,0.5v21.1c0,0.3,0.2,0.5,0.5,0.5h3.9
		c0.3,0,0.5-0.2,0.5-0.5v-12.9l10.7,13.2c0.1,0.1,0.2,0.2,0.4,0.2h3.2c0.3,0,0.5-0.2,0.5-0.5v-21.1
		C299.6,237,299.4,236.8,299.1,236.8L299.1,236.8z"/>
</g>
<g>
	<path class="st1" d="M304.8,258.6c-0.1,0-0.2-0.1-0.2-0.2v-21.1c0-0.1,0.1-0.2,0.2-0.2h15.4c0.1,0,0.2,0.1,0.2,0.2v3.3
		c0,0.1-0.1,0.2-0.2,0.2h-11.3v5h9.9c0.1,0,0.2,0.1,0.2,0.2v3.2c0,0.1-0.1,0.2-0.2,0.2h-9.9v5.3h11.7c0.1,0,0.2,0.1,0.2,0.2v3.3
		c0,0.1-0.1,0.2-0.2,0.2h-15.8V258.6z"/>
	<path class="st1" d="M320.2,237.3v3.3h-11.5v5.5h10.2v3.2h-10.2v5.8h11.9v3.3h-15.8v-21.1L320.2,237.3 M320.2,236.8h-15.4
		c-0.3,0-0.5,0.2-0.5,0.5v21.1c0,0.3,0.2,0.5,0.5,0.5h15.8c0.3,0,0.5-0.2,0.5-0.5v-3.3c0-0.3-0.2-0.5-0.5-0.5h-11.4v-4.8h9.7
		c0.3,0,0.5-0.2,0.5-0.5v-3.2c0-0.3-0.2-0.5-0.5-0.5h-9.7v-4.5h11c0.3,0,0.5-0.2,0.5-0.5v-3.3C320.7,237,320.5,236.8,320.2,236.8
		L320.2,236.8z"/>
</g>
<g>
	<path class="st1" d="M334,258.9c-6,0-9.5-3.5-9.5-9.7v-11.9c0-0.1,0.1-0.2,0.2-0.2h3.9c0.1,0,0.2,0.1,0.2,0.2V249c0,4,1.7,6,5.1,6
		s5.1-1.9,5.1-6v-11.7c0-0.1,0.1-0.2,0.2-0.2h3.9c0.1,0,0.2,0.1,0.2,0.2v11.9C343.5,255.3,340,258.9,334,258.9z"/>
	<path class="st1" d="M343.2,237.3v11.9c0,6.1-3.5,9.5-9.2,9.5c-5.8,0-9.2-3.3-9.2-9.5v-11.9h3.9V249c0,4.3,2,6.2,5.4,6.2
		c3.4,0,5.3-1.9,5.3-6.2v-11.7H343.2 M343.2,236.8h-3.9c-0.3,0-0.5,0.2-0.5,0.5V249c0,3.9-1.5,5.7-4.8,5.7c-3.3,0-4.9-1.8-4.9-5.7
		v-11.7c0-0.3-0.2-0.5-0.5-0.5h-3.9c-0.3,0-0.5,0.2-0.5,0.5v11.9c0,6.3,3.6,10,9.7,10c6.2,0,9.7-3.6,9.7-10v-11.9
		C343.7,237,343.5,236.8,343.2,236.8L343.2,236.8z"/>
</g>
<g>
	<path class="st1" d="M362.5,258.6c-0.1,0-0.2,0-0.2-0.1l-4.2-6.1c-0.2,0-0.5,0-0.7,0h-4.5v5.9c0,0.1-0.1,0.2-0.2,0.2h-3.9
		c-0.1,0-0.2-0.1-0.2-0.2v-21.1c0-0.1,0.1-0.2,0.2-0.2h8.7c5.7,0,9.2,3,9.2,7.8c0,3.2-1.5,5.6-4.4,6.8l4.7,6.7
		c0.1,0.1,0.1,0.2,0,0.3c0,0.1-0.1,0.1-0.2,0.1L362.5,258.6L362.5,258.6z M357.2,248.7c3.2,0,5-1.4,5-4s-1.7-3.9-5-3.9h-4.3v7.9
		H357.2z"/>
	<path class="st1" d="M357.4,237.3c5.5,0,9,2.8,9,7.5c0,3.2-1.6,5.5-4.5,6.7l4.9,6.9h-4.2l-4.3-6.2c-0.3,0-0.5,0-0.8,0h-4.9v6.1
		h-3.9v-21.1h8.7 M352.6,249h4.6c3.4,0,5.2-1.6,5.2-4.2c0-2.7-1.8-4.2-5.2-4.2h-4.6V249 M357.4,236.8h-8.7c-0.3,0-0.5,0.2-0.5,0.5
		v21.1c0,0.3,0.2,0.5,0.5,0.5h3.9c0.3,0,0.5-0.2,0.5-0.5v-5.6h4.3c0.2,0,0.4,0,0.6,0l4.1,5.9c0.1,0.1,0.2,0.2,0.4,0.2h4.2
		c0.2,0,0.4-0.1,0.4-0.3c0.1-0.2,0.1-0.4,0-0.5l-4.5-6.4c2.7-1.3,4.2-3.7,4.2-6.9C366.9,239.8,363.2,236.8,357.4,236.8L357.4,236.8z
		 M353.1,241.1h4.1c2.1,0,4.7,0.6,4.7,3.7s-2.6,3.7-4.7,3.7h-4.1V241.1L353.1,241.1z"/>
</g>
<g>
	<path class="st1" d="M386.5,258.6c-0.1,0-0.2-0.1-0.2-0.2l-2-4.7H374l-2,4.7c0,0.1-0.1,0.2-0.2,0.2h-4c-0.1,0-0.2,0-0.2-0.1
		s-0.1-0.2,0-0.2l9.5-21.1c0-0.1,0.1-0.1,0.2-0.1h3.9c0.1,0,0.2,0.1,0.2,0.1l9.5,21.1c0,0.1,0,0.2,0,0.2s-0.1,0.1-0.2,0.1H386.5z
		 M382.7,250.1l-3.6-8.3l-3.6,8.3H382.7z"/>
	<path class="st1" d="M381.1,237.3l9.5,21.1h-4.1l-2.1-4.9h-10.5l-2.1,4.9h-4l9.5-21.1H381.1 M375.2,250.4h7.9l-4-9.2L375.2,250.4
		 M381.1,236.8h-3.9c-0.2,0-0.4,0.1-0.5,0.3l-9.5,21.1c-0.1,0.2-0.1,0.3,0,0.5c0.1,0.1,0.3,0.2,0.4,0.2h4c0.2,0,0.4-0.1,0.5-0.3
		l1.9-4.6h9.9l2,4.6c0.1,0.2,0.3,0.3,0.5,0.3h4.1c0.2,0,0.3-0.1,0.4-0.2s0.1-0.3,0-0.5l-9.5-21.1
		C381.5,236.9,381.3,236.8,381.1,236.8L381.1,236.8z M376,249.9l3.2-7.5l3.2,7.5H376L376,249.9z"/>
</g>
<g>
	<path class="st1" d="M393.3,258.6c-0.1,0-0.2-0.1-0.2-0.2v-21.1c0-0.1,0.1-0.2,0.2-0.2h3.9c0.1,0,0.2,0.1,0.2,0.2v17.5h10.8
		c0.1,0,0.2,0.1,0.2,0.2v3.3c0,0.1-0.1,0.2-0.2,0.2L393.3,258.6L393.3,258.6z"/>
	<path class="st1" d="M397.2,237.3v17.8h11v3.3h-14.9v-21.1L397.2,237.3 M397.2,236.8h-3.9c-0.3,0-0.5,0.2-0.5,0.5v21.1
		c0,0.3,0.2,0.5,0.5,0.5h14.9c0.3,0,0.5-0.2,0.5-0.5v-3.3c0-0.3-0.2-0.5-0.5-0.5h-10.5v-17.3C397.7,237,397.5,236.8,397.2,236.8
		L397.2,236.8z"/>
</g>
<g>
	<path class="st1" d="M435.2,258.6c-0.1,0-0.1,0-0.2-0.1l-11.2-13.7v13.6c0,0.1-0.1,0.2-0.2,0.2h-3.9c-0.1,0-0.2-0.1-0.2-0.2v-21.1
		c0-0.1,0.1-0.2,0.2-0.2h3.2c0.1,0,0.1,0,0.2,0.1l11.2,13.7v-13.6c0-0.1,0.1-0.2,0.2-0.2h3.9c0.1,0,0.2,0.1,0.2,0.2v21.1
		c0,0.1-0.1,0.2-0.2,0.2L435.2,258.6L435.2,258.6z"/>
	<path class="st1" d="M438.4,237.3v21.1h-3.2l-11.6-14.3v14.3h-3.9v-21.1h3.2l11.6,14.3v-14.3H438.4 M438.4,236.8h-3.9
		c-0.3,0-0.5,0.2-0.5,0.5v12.9L423.3,237c-0.1-0.1-0.2-0.2-0.4-0.2h-3.2c-0.3,0-0.5,0.2-0.5,0.5v21.1c0,0.3,0.2,0.5,0.5,0.5h3.9
		c0.3,0,0.5-0.2,0.5-0.5v-12.9l10.7,13.2c0.1,0.1,0.2,0.2,0.4,0.2h3.2c0.3,0,0.5-0.2,0.5-0.5v-21.1
		C438.9,237,438.7,236.8,438.4,236.8L438.4,236.8z"/>
</g>
<g>
	<path class="st1" d="M444.1,258.6c-0.1,0-0.2-0.1-0.2-0.2v-21.1c0-0.1,0.1-0.2,0.2-0.2h15.4c0.1,0,0.2,0.1,0.2,0.2v3.3
		c0,0.1-0.1,0.2-0.2,0.2h-11.2v5h9.9c0.1,0,0.2,0.1,0.2,0.2v3.2c0,0.1-0.1,0.2-0.2,0.2h-9.9v5.3h11.6c0.1,0,0.2,0.1,0.2,0.2v3.3
		c0,0.1-0.1,0.2-0.2,0.2h-15.8V258.6z"/>
	<path class="st1" d="M459.4,237.3v3.3h-11.5v5.5h10.2v3.2h-10.2v5.8h11.9v3.3H444v-21.1L459.4,237.3 M459.4,236.8H444
		c-0.3,0-0.5,0.2-0.5,0.5v21.1c0,0.3,0.2,0.5,0.5,0.5h15.8c0.3,0,0.5-0.2,0.5-0.5v-3.3c0-0.3-0.2-0.5-0.5-0.5h-11.4v-4.8h9.7
		c0.3,0,0.5-0.2,0.5-0.5v-3.2c0-0.3-0.2-0.5-0.5-0.5h-9.7v-4.5h11c0.3,0,0.5-0.2,0.5-0.5v-3.3C459.9,237,459.7,236.8,459.4,236.8
		L459.4,236.8z"/>
</g>
<g>
	<path class="st1" d="M468.5,258.6c-0.1,0-0.2-0.1-0.2-0.2v-17.6h-6.7c-0.1,0-0.2-0.1-0.2-0.2v-3.3c0-0.1,0.1-0.2,0.2-0.2h17.9
		c0.1,0,0.2,0.1,0.2,0.2v3.3c0,0.1-0.1,0.2-0.2,0.2h-6.7v17.5c0,0.1-0.1,0.2-0.2,0.2L468.5,258.6L468.5,258.6z"/>
	<path class="st1" d="M479.4,237.3v3.3h-7v17.8h-3.9v-17.8h-7v-3.3H479.4 M479.4,236.8h-17.9c-0.3,0-0.5,0.2-0.5,0.5v3.3
		c0,0.3,0.2,0.5,0.5,0.5h6.5v17.3c0,0.3,0.2,0.5,0.5,0.5h3.9c0.3,0,0.5-0.2,0.5-0.5v-17.3h6.5c0.3,0,0.5-0.2,0.5-0.5v-3.3
		C479.9,237,479.7,236.8,479.4,236.8L479.4,236.8z"/>
</g>
<g>
	<path class="st1" d="M501.7,258.6c-0.1,0-0.2-0.1-0.2-0.2l-5-14.9l-5.1,14.9c0,0.1-0.1,0.2-0.2,0.2H487c-0.1,0-0.2-0.1-0.2-0.2
		l-7-21.1c0-0.1,0-0.2,0-0.2c0-0.1,0.1-0.1,0.2-0.1h4.1c0.1,0,0.2,0.1,0.2,0.2l5,15.3l5.2-15.3c0-0.1,0.1-0.2,0.2-0.2h3.6
		c0.1,0,0.2,0.1,0.2,0.2l5.1,15.4l5.2-15.4c0-0.1,0.1-0.2,0.2-0.2h3.7c0.1,0,0.2,0,0.2,0.1s0.1,0.1,0,0.2l-7,21.1
		c0,0.1-0.1,0.2-0.2,0.2H501.7z"/>
	<path class="st1" d="M512.9,237.3l-7,21.1h-4.2l-5.2-15.6l-5.3,15.6H487l-7-21.1h4.1l5.2,16l5.5-16h3.6l5.3,16.1l5.4-16.1H512.9
		 M512.9,236.8h-3.7c-0.2,0-0.4,0.1-0.5,0.3l-4.9,14.7l-4.9-14.7c-0.1-0.2-0.3-0.3-0.5-0.3h-3.6c-0.2,0-0.4,0.1-0.5,0.3l-5,14.6
		l-4.8-14.6c-0.1-0.2-0.3-0.3-0.5-0.3h-4.1c-0.2,0-0.3,0.1-0.4,0.2c-0.1,0.1-0.1,0.3-0.1,0.4l7,21.1c0.1,0.2,0.3,0.3,0.5,0.3h4.2
		c0.2,0,0.4-0.1,0.5-0.3l4.8-14.2l4.7,14.2c0.1,0.2,0.3,0.3,0.5,0.3h4.2c0.2,0,0.4-0.1,0.5-0.3l7-21.1c0.1-0.2,0-0.3-0.1-0.5
		C513.2,236.8,513,236.8,512.9,236.8L512.9,236.8z M512.9,237.8L512.9,237.8L512.9,237.8L512.9,237.8z"/>
</g>
<g>
	<path class="st1" d="M525.7,258.9c-6.6,0-11.6-4.8-11.6-11.1c0-6.4,4.9-11.1,11.6-11.1c6.7,0,11.6,4.7,11.6,11.1
		S532.4,258.9,525.7,258.9z M525.7,240.6c-4.1,0-7.2,3-7.2,7.2s3,7.2,7.2,7.2c4.2,0,7.2-3,7.2-7.2S529.9,240.6,525.7,240.6z"/>
	<path class="st1" d="M525.7,237c6.5,0,11.4,4.6,11.4,10.8c0,6.3-4.8,10.8-11.4,10.8c-6.6,0-11.4-4.6-11.4-10.8
		C514.4,241.6,519.2,237,525.7,237 M525.7,255.2c4.2,0,7.4-3.1,7.4-7.4s-3.2-7.4-7.4-7.4c-4.2,0-7.4,3.1-7.4,7.4
		S521.5,255.2,525.7,255.2 M525.7,236.5c-6.8,0-11.9,4.9-11.9,11.3c0,6.5,5.1,11.3,11.9,11.3c6.9,0,11.9-4.8,11.9-11.3
		C537.6,241.2,532.6,236.5,525.7,236.5L525.7,236.5z M525.7,254.7c-4,0-6.9-2.9-6.9-6.9s2.9-6.9,6.9-6.9s6.9,2.9,6.9,6.9
		S529.7,254.7,525.7,254.7L525.7,254.7z"/>
</g>
<g>
	<path class="st1" d="M555,258.6c-0.1,0-0.2,0-0.2-0.1l-4.2-6.1c-0.2,0-0.5,0-0.7,0h-4.5v5.9c0,0.1-0.1,0.2-0.2,0.2h-3.9
		c-0.1,0-0.2-0.1-0.2-0.2v-21.1c0-0.1,0.1-0.2,0.2-0.2h8.7c5.7,0,9.2,3,9.2,7.8c0,3.2-1.5,5.6-4.4,6.8l4.7,6.7
		c0.1,0.1,0.1,0.2,0,0.3c0,0.1-0.1,0.1-0.2,0.1L555,258.6L555,258.6z M549.7,248.7c3.2,0,5-1.4,5-4s-1.7-3.9-5-3.9h-4.3v7.9H549.7z"
		/>
	<path class="st1" d="M549.9,237.3c5.5,0,9,2.8,9,7.5c0,3.2-1.6,5.5-4.5,6.7l4.9,6.9h-4.2l-4.3-6.2c-0.3,0-0.5,0-0.8,0h-4.8v6.1
		h-3.9v-21.1h8.6 M545.1,249h4.6c3.4,0,5.2-1.6,5.2-4.2c0-2.7-1.8-4.2-5.2-4.2h-4.6V249 M549.9,236.8h-8.7c-0.3,0-0.5,0.2-0.5,0.5
		v21.1c0,0.3,0.2,0.5,0.5,0.5h3.9c0.3,0,0.5-0.2,0.5-0.5v-5.6h4.3c0.2,0,0.4,0,0.6,0l4.1,5.9c0.1,0.1,0.2,0.2,0.4,0.2h4.2
		c0.2,0,0.4-0.1,0.4-0.3s0.1-0.4,0-0.5l-4.5-6.4c2.7-1.3,4.2-3.7,4.2-6.9C559.4,239.8,555.7,236.8,549.9,236.8L549.9,236.8z
		 M545.6,241.1h4.1c2.1,0,4.7,0.6,4.7,3.7s-2.6,3.7-4.7,3.7h-4.1V241.1L545.6,241.1z"/>
</g>
<g>
	<path class="st1" d="M577.9,258.6c-0.1,0-0.1,0-0.2-0.1l-7.3-8.6l-3.1,3.2v5.3c0,0.1-0.1,0.2-0.2,0.2h-3.9c-0.1,0-0.2-0.1-0.2-0.2
		v-21.1c0-0.1,0.1-0.2,0.2-0.2h3.9c0.1,0,0.2,0.1,0.2,0.2v10.2l10-10.4c0,0,0.1-0.1,0.2-0.1h4.4c0.1,0,0.2,0.1,0.2,0.2s0,0.2,0,0.3
		l-8.7,9.3l9.3,11.5c0.1,0.1,0.1,0.2,0,0.3c0,0.1-0.1,0.1-0.2,0.1L577.9,258.6L577.9,258.6z"/>
	<path class="st1" d="M582,237.3L582,237.3 M582,237.3l-8.9,9.4l9.4,11.7h-4.6l-7.4-8.8l-3.3,3.4v5.4h-3.9v-21.1h3.9v10.8l10.4-10.8
		H582 M582,236.8L582,236.8h-4.4c-0.1,0-0.3,0.1-0.4,0.2l-9.6,9.9v-9.6c0-0.3-0.2-0.5-0.5-0.5h-3.9c-0.3,0-0.5,0.2-0.5,0.5v21.1
		c0,0.3,0.2,0.5,0.5,0.5h3.9c0.3,0,0.5-0.2,0.5-0.5v-5.2l2.8-2.9l7.1,8.4c0.1,0.1,0.2,0.2,0.4,0.2h4.6c0.2,0,0.4-0.1,0.5-0.3
		c0.1-0.2,0.1-0.4-0.1-0.5l-9.1-11.3l8.5-9.1c0.1-0.1,0.2-0.2,0.2-0.4C582.5,237,582.3,236.8,582,236.8L582,236.8z M582,237.8
		L582,237.8L582,237.8L582,237.8z"/>
</g>
<g>
	<path class="st1" d="M614.2,257.8c-0.1,0-0.2-0.1-0.2-0.2l-2-4.7h-10.3l-2,4.7c0,0.1-0.1,0.2-0.2,0.2h-4c-0.1,0-0.2,0-0.2-0.1
		s-0.1-0.2,0-0.2l9.5-21.1c0-0.1,0.1-0.1,0.2-0.1h3.9c0.1,0,0.2,0.1,0.2,0.1l9.5,21.1c0,0.1,0,0.2,0,0.2s-0.1,0.1-0.2,0.1H614.2z
		 M610.4,249.3l-3.6-8.3l-3.6,8.3H610.4z"/>
	<path class="st1" d="M608.7,236.5l9.5,21.1h-4.1l-2.1-4.9h-10.5l-2.1,4.9h-4l9.5-21.1H608.7 M602.8,249.6h7.9l-4-9.2L602.8,249.6
		 M608.7,236h-3.9c-0.2,0-0.4,0.1-0.5,0.3l-9.5,21.1c-0.1,0.2-0.1,0.3,0,0.5c0.1,0.1,0.3,0.2,0.4,0.2h4c0.2,0,0.4-0.1,0.5-0.3
		l1.9-4.6h9.9l2,4.6c0.1,0.2,0.3,0.3,0.5,0.3h4.1c0.2,0,0.3-0.1,0.4-0.2c0.1-0.1,0.1-0.3,0-0.5l-9.5-21.1
		C609.1,236.1,608.9,236,608.7,236L608.7,236z M603.6,249.1l3.2-7.5l3.2,7.5H603.6L603.6,249.1z"/>
</g>
<g>
	<path class="st1" d="M636.5,257.8c-0.1,0-0.1,0-0.2-0.1L625.1,244v13.6c0,0.1-0.1,0.2-0.2,0.2H621c-0.1,0-0.2-0.1-0.2-0.2v-21.1
		c0-0.1,0.1-0.2,0.2-0.2h3.2c0.1,0,0.1,0,0.2,0.1l11.2,13.7v-13.6c0-0.1,0.1-0.2,0.2-0.2h3.9c0.1,0,0.2,0.1,0.2,0.2v21.1
		c0,0.1-0.1,0.2-0.2,0.2H636.5z"/>
	<path class="st1" d="M639.7,236.5v21.1h-3.2l-11.6-14.3v14.3H621v-21.1h3.2l11.6,14.3v-14.3H639.7 M639.7,236h-3.9
		c-0.3,0-0.5,0.2-0.5,0.5v12.9l-10.7-13.3c-0.1-0.1-0.2-0.2-0.4-0.2H621c-0.3,0-0.5,0.2-0.5,0.5v21.1c0,0.3,0.2,0.5,0.5,0.5h3.9
		c0.3,0,0.5-0.2,0.5-0.5v-12.9l10.7,13.2c0.1,0.1,0.2,0.2,0.4,0.2h3.2c0.3,0,0.5-0.2,0.5-0.5v-21.1C640.2,236.2,640,236,639.7,236
		L639.7,236z"/>
</g>
<g>
	<path class="st1" d="M661.1,257.8c-0.1,0-0.2-0.1-0.2-0.2l-2-4.7h-10.3l-2,4.7c0,0.1-0.1,0.2-0.2,0.2h-4c-0.1,0-0.2,0-0.2-0.1
		s-0.1-0.2,0-0.2l9.5-21.1c0-0.1,0.1-0.1,0.2-0.1h3.9c0.1,0,0.2,0.1,0.2,0.1l9.5,21.1c0,0.1,0,0.2,0,0.2s-0.1,0.1-0.2,0.1H661.1z
		 M657.3,249.3l-3.6-8.3l-3.6,8.3H657.3z"/>
	<path class="st1" d="M655.7,236.5l9.5,21.1h-4.1l-2.1-4.9h-10.5l-2.1,4.9h-4l9.5-21.1H655.7 M649.8,249.6h7.9l-4-9.2L649.8,249.6
		 M655.7,236h-3.9c-0.2,0-0.4,0.1-0.5,0.3l-9.5,21.1c-0.1,0.2-0.1,0.3,0,0.5c0.1,0.1,0.3,0.2,0.4,0.2h4c0.2,0,0.4-0.1,0.5-0.3
		l1.9-4.6h9.9l2,4.6c0.1,0.2,0.3,0.3,0.5,0.3h4.1c0.2,0,0.3-0.1,0.4-0.2c0.1-0.1,0.1-0.3,0-0.5l-9.5-21.1
		C656.1,236.1,655.9,236,655.7,236L655.7,236z M650.6,249.1l3.2-7.5l3.2,7.5H650.6L650.6,249.1z"/>
</g>
<g>
	<path class="st1" d="M667.9,257.8c-0.1,0-0.2-0.1-0.2-0.2v-21.1c0-0.1,0.1-0.2,0.2-0.2h3.9c0.1,0,0.2,0.1,0.2,0.2V254h10.8
		c0.1,0,0.2,0.1,0.2,0.2v3.3c0,0.1-0.1,0.2-0.2,0.2h-14.9V257.8z"/>
	<path class="st1" d="M671.8,236.5v17.8h11v3.3h-14.9v-21.1L671.8,236.5 M671.8,236h-3.9c-0.3,0-0.5,0.2-0.5,0.5v21.1
		c0,0.3,0.2,0.5,0.5,0.5h14.9c0.3,0,0.5-0.2,0.5-0.5v-3.3c0-0.3-0.2-0.5-0.5-0.5h-10.5v-17.3C672.3,236.2,672.1,236,671.8,236
		L671.8,236z"/>
</g>
<g>
	<path class="st1" d="M688.9,257.8c-0.1,0-0.2-0.1-0.2-0.2v-7.3l-8.2-13.6c0-0.1,0-0.2,0-0.3c0-0.1,0.1-0.1,0.2-0.1h4.2
		c0.1,0,0.2,0,0.2,0.1l6,9.9l6-9.9c0-0.1,0.1-0.1,0.2-0.1h3.9c0.1,0,0.2,0,0.2,0.1s0,0.2,0,0.3l-8.2,13.6v7.4c0,0.1-0.1,0.2-0.2,0.2
		h-4.1V257.8z"/>
	<path class="st1" d="M701.1,236.5l-8.3,13.6v7.4h-3.9v-7.4l-8.3-13.6h4.2l6.2,10.3l6.2-10.3H701.1 M701.1,236h-3.9
		c-0.2,0-0.3,0.1-0.4,0.2l-5.8,9.6l-5.7-9.6c-0.1-0.2-0.3-0.2-0.4-0.2h-4.3c-0.2,0-0.3,0.1-0.4,0.3c-0.1,0.2-0.1,0.3,0,0.5l8.2,13.6
		v7.2c0,0.3,0.2,0.5,0.5,0.5h3.9c0.3,0,0.5-0.2,0.5-0.5v-7.3l8.2-13.5c0.1-0.2,0.1-0.3,0-0.5C701.4,236.1,701.3,236,701.1,236
		L701.1,236z M701.1,237L701.1,237L701.1,237L701.1,237z"/>
</g>
<g>
	<path class="st1" d="M707.6,257.8c-0.1,0-0.2-0.1-0.2-0.2v-17.5h-6.8c-0.1,0-0.2-0.1-0.2-0.2v-3.3c0-0.1,0.1-0.2,0.2-0.2h17.9
		c0.1,0,0.2,0.1,0.2,0.2v3.3c0,0.1-0.1,0.2-0.2,0.2h-6.7v17.5c0,0.1-0.1,0.2-0.2,0.2H707.6z"/>
	<path class="st1" d="M718.5,236.5v3.3h-7v17.8h-3.9v-17.8h-7v-3.3H718.5 M718.5,236h-17.9c-0.3,0-0.5,0.2-0.5,0.5v3.3
		c0,0.3,0.2,0.5,0.5,0.5h6.5v17.3c0,0.3,0.2,0.5,0.5,0.5h3.9c0.3,0,0.5-0.2,0.5-0.5v-17.3h6.5c0.3,0,0.5-0.2,0.5-0.5v-3.3
		C719,236.2,718.8,236,718.5,236L718.5,236z"/>
</g>
<g>
	<path class="st1" d="M721.5,257.8c-0.1,0-0.2-0.1-0.2-0.2v-21.1c0-0.1,0.1-0.2,0.2-0.2h3.9c0.1,0,0.2,0.1,0.2,0.2v21.1
		c0,0.1-0.1,0.2-0.2,0.2H721.5z"/>
	<path class="st1" d="M725.4,236.5v21.1h-3.9v-21.1H725.4 M725.4,236h-3.9c-0.3,0-0.5,0.2-0.5,0.5v21.1c0,0.3,0.2,0.5,0.5,0.5h3.9
		c0.3,0,0.5-0.2,0.5-0.5v-21.1C725.9,236.2,725.7,236,725.4,236L725.4,236z"/>
</g>
<g>
	<path class="st1" d="M740.8,258.1c-6.7,0-11.5-4.7-11.5-11.1s4.9-11.1,11.5-11.1c3.5,0,6.5,1.3,8.5,3.6c0.1,0.1,0.1,0.3,0,0.3
		l-2.5,2.4c0,0-0.1,0.1-0.2,0.1l0,0c-0.1,0-0.1,0-0.2-0.1c-1.5-1.6-3.3-2.4-5.5-2.4c-4.2,0-7.3,3-7.3,7.2s3.1,7.2,7.3,7.2
		c2.2,0,4-0.8,5.4-2.4c0,0,0.1-0.1,0.2-0.1l0,0c0.1,0,0.1,0,0.2,0.1l2.5,2.4c0.1,0.1,0.1,0.2,0,0.3
		C747.4,256.8,744.4,258.1,740.8,258.1z"/>
	<path class="st1" d="M740.9,236.2c3.4,0,6.4,1.2,8.3,3.5l-2.5,2.4c-1.5-1.7-3.4-2.5-5.6-2.5c-4.4,0-7.5,3.1-7.5,7.4
		s3.2,7.4,7.5,7.4c2.2,0,4.1-0.8,5.6-2.5l2.5,2.4c-2,2.3-4.9,3.5-8.4,3.5c-6.4,0-11.3-4.5-11.3-10.8
		C729.6,240.7,734.4,236.2,740.9,236.2 M740.9,235.7c-6.8,0-11.8,4.8-11.8,11.3c0,6.6,4.9,11.3,11.8,11.3c3.6,0,6.7-1.3,8.8-3.7
		c0.2-0.2,0.2-0.5,0-0.7l-2.5-2.4c-0.1-0.1-0.2-0.1-0.3-0.1l0,0c-0.1,0-0.3,0.1-0.4,0.2c-1.4,1.6-3.2,2.3-5.3,2.3
		c-4.1,0-7-2.8-7-6.9s2.9-6.9,7-6.9c2.1,0,3.8,0.8,5.3,2.3c0.1,0.1,0.2,0.2,0.3,0.2l0,0c0.1,0,0.2,0,0.3-0.1l2.5-2.4
		c0.2-0.2,0.2-0.5,0-0.7C747.6,237,744.5,235.7,740.9,235.7L740.9,235.7z"/>
</g>
<g>
	<path class="st1" d="M759.4,258.1c-3.3,0-6.7-1-8.5-2.6c-0.1-0.1-0.1-0.2-0.1-0.3l1.4-3c0-0.1,0.1-0.1,0.2-0.1c0,0,0,0,0.1,0
		c0.1,0,0.1,0,0.2,0.1c1.7,1.4,4.4,2.3,6.8,2.3c2.8,0,4.4-0.9,4.4-2.5c0-1.8-2.2-2.3-4.8-2.9c-3.4-0.8-7.7-1.8-7.7-6.5
		c0-3,2.3-6.5,8.7-6.5c2.7,0,5.3,0.7,7.2,1.9c0.1,0.1,0.1,0.2,0.1,0.3l-1.2,3c0,0.1-0.1,0.1-0.2,0.1h-0.1h-0.1
		c-1.8-1-3.8-1.6-5.7-1.6c-2.8,0-4.3,1-4.3,2.6c0,1.7,2.2,2.3,4.8,2.9c3.4,0.8,7.7,1.8,7.7,6.4C768.2,254.6,765.9,258.1,759.4,258.1
		z"/>
	<path class="st1" d="M760,236.2c2.5,0,5.2,0.7,7,1.9l-1.2,3c-1.9-1.1-4-1.7-5.8-1.7c-3.3,0-4.6,1.3-4.6,2.9
		c0,4.5,12.5,1.6,12.5,9.3c0,3.4-2.7,6.3-8.5,6.3c-3.3,0-6.6-1-8.3-2.5l1.4-3c1.7,1.4,4.4,2.3,7,2.3c3.3,0,4.7-1.2,4.7-2.7
		c0-4.5-12.5-1.6-12.5-9.4C751.5,239,754.3,236.2,760,236.2 M760,235.7c-6.6,0-9,3.7-9,6.8c0,4.8,4.4,5.9,7.9,6.7
		c2.9,0.7,4.6,1.2,4.6,2.7c0,2-2.6,2.2-4.2,2.2c-2.4,0-5-0.9-6.6-2.2c-0.1-0.1-0.2-0.1-0.3-0.1h-0.1c-0.2,0-0.3,0.1-0.3,0.3l-1.4,3
		c-0.1,0.2,0,0.4,0.1,0.6c1.9,1.6,5.3,2.7,8.6,2.7c6.7,0,9-3.6,9-6.8c0-4.8-4.4-5.8-7.9-6.7c-2.9-0.7-4.6-1.2-4.6-2.6
		c0-1.5,1.4-2.4,4.1-2.4c1.8,0,3.8,0.6,5.6,1.6c0.1,0,0.2,0.1,0.3,0.1c0.1,0,0.1,0,0.2,0s0.2-0.2,0.3-0.3l1.2-3
		c0.1-0.2,0-0.5-0.2-0.6C765.5,236.4,762.7,235.7,760,235.7L760,235.7z"/>
</g>
</svg>
