<svg xmlns="http://www.w3.org/2000/svg" width="17.143" height="20" viewBox="0 0 17.143 20">
  <g id="Copy_icon" data-name="Copy icon" transform="translate(-428.429 -769)">
    <path id="Path_13247" data-name="Path 13247" d="M15.357,32.857a2.107,2.107,0,0,1-1.786-2.162V17.857h-.378a1.749,1.749,0,0,0-1.765,1.733V33.267A1.748,1.748,0,0,0,13.194,35H23.95a1.749,1.749,0,0,0,1.765-1.733v-.41Z" transform="translate(417 754)" fill="#cad1d3"/>
    <path id="Path_13248" data-name="Path 13248" d="M33.512,10.2V5H26.051a1.749,1.749,0,0,0-1.765,1.733V20.41a1.749,1.749,0,0,0,1.765,1.733H36.807a1.749,1.749,0,0,0,1.765-1.733V10.2ZM34.4,5.612V9.286l3.571,0Z" transform="translate(407 764)" fill="#cad1d3"/>
  </g>
</svg>
