<svg xmlns="http://www.w3.org/2000/svg" width="17.306" height="17.313" viewBox="0 0 17.306 17.313">
  <g id="details_Enable" data-name="details Enable" transform="translate(-10433 -22219.998)" fill="none">
    <path d="M10442.738,22237.311v-7.574h7.567v7.574Zm-9.738,0v-7.574h7.573v7.574Zm9.738-9.738V22220h7.567v7.574Zm-9.738,0V22220h7.573v7.574Z" stroke="none"/>
    <path d="M 10448.8056640625 22235.810546875 L 10448.8056640625 22231.236328125 L 10444.23828125 22231.236328125 L 10444.23828125 22235.810546875 L 10448.8056640625 22235.810546875 M 10439.0732421875 22235.810546875 L 10439.0732421875 22231.236328125 L 10434.5 22231.236328125 L 10434.5 22235.810546875 L 10439.0732421875 22235.810546875 M 10448.8056640625 22226.072265625 L 10448.8056640625 22221.498046875 L 10444.23828125 22221.498046875 L 10444.23828125 22226.072265625 L 10448.8056640625 22226.072265625 M 10439.0732421875 22226.072265625 L 10439.0732421875 22221.498046875 L 10434.5 22221.498046875 L 10434.5 22226.072265625 L 10439.0732421875 22226.072265625 M 10450.3056640625 22237.310546875 L 10442.73828125 22237.310546875 L 10442.73828125 22229.736328125 L 10450.3056640625 22229.736328125 L 10450.3056640625 22237.310546875 Z M 10440.5732421875 22237.310546875 L 10433 22237.310546875 L 10433 22229.736328125 L 10440.5732421875 22229.736328125 L 10440.5732421875 22237.310546875 Z M 10450.3056640625 22227.572265625 L 10442.73828125 22227.572265625 L 10442.73828125 22219.998046875 L 10450.3056640625 22219.998046875 L 10450.3056640625 22227.572265625 Z M 10440.5732421875 22227.572265625 L 10433 22227.572265625 L 10433 22219.998046875 L 10440.5732421875 22219.998046875 L 10440.5732421875 22227.572265625 Z" stroke="none" fill="#fff"/>
  </g>
</svg>
