<svg xmlns="http://www.w3.org/2000/svg" width="15.499" height="15.499" viewBox="0 0 15.499 15.499">
  <g id="Delete" transform="translate(-881 -1465)">
    <path id="Path_13134" data-name="Path 13134" d="M8.749,1A7.749,7.749,0,1,0,16.5,8.749,7.749,7.749,0,0,0,8.749,1Zm0,14.09a6.34,6.34,0,1,1,6.34-6.34,6.34,6.34,0,0,1-6.34,6.34Z" transform="translate(880 1464)" fill="#88969f"/>
    <path id="Path_13135" data-name="Path 13135" d="M13.344,8.373a.7.7,0,0,0-.993,0l-1.5,1.5-1.494-1.5a.707.707,0,0,0-1,1l1.5,1.494-1.5,1.494a.7.7,0,1,0,.993.993l1.5-1.494,1.494,1.494a.7.7,0,0,0,.993-.993l-1.494-1.494,1.494-1.494a.7.7,0,0,0,.007-1Z" transform="translate(877.899 1461.882)" fill="#88969f"/>
  </g>
</svg>
