<svg xmlns="http://www.w3.org/2000/svg" width="17.871" height="17.325" viewBox="0 0 17.871 17.325">
  <g id="Edit" transform="translate(-2.697 -3.375)">
    <path id="Path_13293" data-name="Path 13293" d="M4.92,22.166H16.743a2.237,2.237,0,0,0,2.222-2.222V11.476l-1.593,1.719v6.75a.645.645,0,0,1-.629.629H4.92a.645.645,0,0,1-.629-.629V8.122a.645.645,0,0,1,.629-.629h8.091L14.73,5.9H4.92A2.237,2.237,0,0,0,2.7,8.122V19.944A2.184,2.184,0,0,0,4.92,22.166Z" transform="translate(0 -1.466)" fill="#88969f"/>
    <path id="Path_13294" data-name="Path 13294" d="M40.89,6.152a1.63,1.63,0,0,0-2.306-2.306L38.5,3.93l2.306,2.306Z" transform="translate(-20.793)" fill="#88969f"/>
    <path id="Path_13295" data-name="Path 13295" d="M24.961,6.5l-7.421,7.421h0L16.493,16.9a.334.334,0,0,0,.377.377l2.977-1.048h0l7.421-7.421Z" transform="translate(-8.009 -1.815)" fill="#88969f"/>
  </g>
</svg>
