<?xml version="1.0" encoding="utf-8"?>
<!-- Generator: Adobe Illustrator 25.4.1, SVG Export Plug-In . SVG Version: 6.00 Build 0)  -->
<svg version="1.1" id="Layer_1" xmlns="http://www.w3.org/2000/svg" xmlns:xlink="http://www.w3.org/1999/xlink" x="0px" y="0px"
	 viewBox="0 0 286.18 75.66" style="enable-background:new 0 0 286.18 75.66;" xml:space="preserve">
<style type="text/css">
	.st0{fill:#F05239;}
	.st1{fill:#1B437A;}
	.st2{fill:#FFD950;}
</style>
<g>
	<path class="st0" d="M103.53,48.96c0,2.53-1.45,3.94-3.92,3.94h-2.78v-7.87h2.78C102.08,45.03,103.53,46.44,103.53,48.96z
		 M102.19,48.96c0-1.81-0.92-2.85-2.58-2.85H98.1v5.7h1.51C101.27,51.82,102.19,50.78,102.19,48.96z"/>
	<path class="st0" d="M111.99,50.84h-3.32l-0.75,2.06h-1.31l2.97-7.87h1.53l2.97,7.87h-1.35L111.99,50.84z M111.61,49.8l-0.91-2.53
		l-0.36-1.13h-0.04l-0.33,1.11l-0.93,2.55H111.61z"/>
	<path class="st0" d="M122.66,46.13h-2.7v6.77h-1.28v-6.77h-2.7v-1.1h6.68V46.13z"/>
	<path class="st0" d="M129.96,50.84h-3.32l-0.75,2.06h-1.31l2.97-7.87h1.53l2.97,7.87h-1.35L129.96,50.84z M129.57,49.8l-0.91-2.53
		l-0.36-1.13h-0.04l-0.33,1.11l-0.93,2.55H129.57z"/>
	<path class="st0" d="M145.72,50.84h-3.32l-0.75,2.06h-1.31l2.97-7.87h1.53l2.97,7.87h-1.35L145.72,50.84z M145.34,49.8l-0.91-2.53
		l-0.36-1.13h-0.04l-0.33,1.11l-0.93,2.55H145.34z"/>
	<path class="st0" d="M158.06,52.9h-1.52l-3.05-4.96l-0.76-1.46h-0.01l0.05,1.34v5.08h-1.17v-7.87h1.51l3.03,4.95l0.78,1.47h0.01
		l-0.05-1.34v-5.08h1.18V52.9z"/>
	<path class="st0" d="M169.48,48.96c0,2.53-1.45,3.94-3.92,3.94h-2.78v-7.87h2.78C168.03,45.03,169.48,46.44,169.48,48.96z
		 M168.14,48.96c0-1.81-0.92-2.85-2.58-2.85h-1.51v5.7h1.51C167.22,51.82,168.14,50.78,168.14,48.96z"/>
	<path class="st0" d="M186.74,48.96c0,2.53-1.45,3.94-3.92,3.94h-2.78v-7.87h2.78C185.29,45.03,186.74,46.44,186.74,48.96z
		 M185.4,48.96c0-1.81-0.92-2.85-2.58-2.85h-1.51v5.7h1.51C184.48,51.82,185.4,50.78,185.4,48.96z"/>
	<path class="st0" d="M192.3,52.9h-1.28v-7.87h1.28V52.9z"/>
	<path class="st0" d="M203.64,48.83v4.07h-0.94l-0.05-1c-0.44,0.7-1.24,1.12-2.4,1.12c-2.21,0-3.66-1.53-3.66-4.06
		c0-2.5,1.48-4.06,3.75-4.06c1.64,0,2.64,0.58,3.25,1.86l-1.17,0.56c-0.31-0.87-1.06-1.31-2.05-1.31c-1.48,0-2.44,1.07-2.44,2.95
		c0,1.88,0.85,2.96,2.46,2.96c1.19,0,2.11-0.6,2.11-1.81v-0.23h-2.41v-1.05H203.64z"/>
	<path class="st0" d="M209.35,52.9h-1.28v-7.87h1.28V52.9z"/>
	<path class="st0" d="M219.94,46.13h-2.7v6.77h-1.28v-6.77h-2.7v-1.1h6.68V46.13z"/>
	<path class="st0" d="M227.24,50.84h-3.32l-0.75,2.06h-1.31l2.97-7.87h1.53l2.97,7.87h-1.35L227.24,50.84z M226.86,49.8l-0.91-2.53
		l-0.36-1.13h-0.04l-0.33,1.11l-0.93,2.55H226.86z"/>
	<path class="st0" d="M238.74,51.8v1.1h-5.63v-7.87h1.28v6.77H238.74z"/>
	<path class="st0" d="M254.24,51.8v1.1h-5.63v-7.87h1.28v6.77H254.24z"/>
	<path class="st0" d="M262.62,50.84h-3.32l-0.75,2.06h-1.31l2.97-7.87h1.53l2.97,7.87h-1.35L262.62,50.84z M262.23,49.8l-0.91-2.53
		l-0.36-1.13h-0.04l-0.33,1.11l-0.93,2.55H262.23z"/>
	<path class="st0" d="M268.49,45.03h3.11c1.89,0,2.74,0.81,2.74,2.16c0,0.82-0.49,1.55-1.41,1.72v0.01c1.02,0.17,1.61,0.92,1.61,1.8
		c0,1.35-1.02,2.18-2.89,2.18h-3.15V45.03z M271.5,48.42c1,0,1.51-0.38,1.51-1.16c0-0.78-0.5-1.16-1.51-1.16h-1.76v2.31H271.5z
		 M271.71,51.84c1,0,1.51-0.43,1.51-1.18c0-0.75-0.5-1.18-1.51-1.18h-1.96v2.36H271.71z"/>
</g>
<g>
	<path class="st1" d="M101.24,27.11v2.61c0,0.23,0.19,0.41,0.41,0.41h5.75c0.23,0,0.41,0.19,0.41,0.41v2.59
		c0,0.23-0.19,0.41-0.41,0.41h-5.75c-0.23,0-0.41,0.19-0.41,0.41v4.53c0,0.23-0.19,0.41-0.41,0.41h-3.39
		c-0.23,0-0.41-0.19-0.41-0.41V23.7c0-0.23,0.19-0.41,0.41-0.41h10.86c0.23,0,0.41,0.19,0.41,0.41v2.59c0,0.23-0.19,0.41-0.41,0.41
		h-6.65C101.43,26.7,101.24,26.88,101.24,27.11z"/>
	<path class="st1" d="M113.02,23.28h3.39c0.23,0,0.41,0.19,0.41,0.41v14.8c0,0.23-0.19,0.41-0.41,0.41h-3.39
		c-0.23,0-0.41-0.19-0.41-0.41V23.7C112.61,23.47,112.79,23.28,113.02,23.28z"/>
	<path class="st1" d="M132.68,35.91v2.59c0,0.23-0.19,0.41-0.41,0.41h-11.14c-0.23,0-0.41-0.19-0.41-0.41V23.7
		c0-0.23,0.19-0.41,0.41-0.41h10.86c0.23,0,0.41,0.19,0.41,0.41v2.59c0,0.23-0.19,0.41-0.41,0.41h-6.69c-0.23,0-0.41,0.19-0.41,0.41
		v1.81c0,0.23,0.19,0.41,0.41,0.41h5.79c0.23,0,0.41,0.19,0.41,0.41v2.48c0,0.23-0.19,0.41-0.41,0.41h-5.79
		c-0.23,0-0.41,0.19-0.41,0.41v2.03c0,0.23,0.19,0.41,0.41,0.41h6.96C132.49,35.5,132.68,35.68,132.68,35.91z"/>
	<path class="st1" d="M136.99,23.28h3.39c0.23,0,0.41,0.19,0.41,0.41v11.3c0,0.23,0.19,0.41,0.41,0.41h6.28
		c0.23,0,0.41,0.19,0.41,0.41v2.68c0,0.23-0.19,0.41-0.41,0.41h-10.5c-0.23,0-0.41-0.19-0.41-0.41V23.7
		C136.57,23.47,136.76,23.28,136.99,23.28z"/>
	<path class="st1" d="M151.79,23.7c0-0.23,0.19-0.41,0.41-0.41h6.63c4.94,0,8.32,3.01,8.32,7.82c0,4.8-3.38,7.82-8.32,7.82h-6.63
		c-0.23,0-0.41-0.19-0.41-0.41V23.7z M158.67,35.39c2.53,0,4.24-1.59,4.24-4.29c0-2.7-1.7-4.29-4.24-4.29h-2.25
		c-0.23,0-0.41,0.19-0.41,0.41v7.75c0,0.23,0.19,0.41,0.41,0.41H158.67z"/>
	<path class="st0" d="M176.46,26.45h-3.82c-0.23,0-0.41-0.19-0.41-0.41v-2.75c0-0.23,0.19-0.41,0.41-0.41h12.73
		c0.23,0,0.41,0.19,0.41,0.41v2.75c0,0.23-0.19,0.41-0.41,0.41h-3.8c-0.23,0-0.41,0.19-0.41,0.41V38.4c0,0.23-0.19,0.41-0.41,0.41
		h-3.45c-0.23,0-0.41-0.19-0.41-0.41V26.87C176.88,26.64,176.69,26.45,176.46,26.45z"/>
	<path class="st0" d="M204.37,23.29V38.4c0,0.23-0.19,0.41-0.41,0.41h-3.45c-0.23,0-0.41-0.19-0.41-0.41v-5.39
		c0-0.23-0.19-0.41-0.41-0.41h-5.01c-0.23,0-0.41,0.19-0.41,0.41v5.39c0,0.23-0.19,0.41-0.41,0.41h-3.45
		c-0.23,0-0.41-0.19-0.41-0.41V23.29c0-0.23,0.19-0.41,0.41-0.41h3.45c0.23,0,0.41,0.19,0.41,0.41v5.16c0,0.23,0.19,0.41,0.41,0.41
		h5.01c0.23,0,0.41-0.19,0.41-0.41v-5.16c0-0.23,0.19-0.41,0.41-0.41h3.45C204.19,22.88,204.37,23.07,204.37,23.29z"/>
	<path class="st0" d="M221.14,35.75v2.66c0,0.23-0.19,0.41-0.41,0.41h-11.32c-0.23,0-0.41-0.19-0.41-0.41V23.29
		c0-0.23,0.19-0.41,0.41-0.41h11.04c0.23,0,0.41,0.19,0.41,0.41v2.66c0,0.23-0.19,0.41-0.41,0.41h-6.8c-0.23,0-0.41,0.19-0.41,0.41
		v1.86c0,0.23,0.19,0.41,0.41,0.41h5.9c0.23,0,0.41,0.19,0.41,0.41v2.54c0,0.23-0.19,0.41-0.41,0.41h-5.9
		c-0.23,0-0.41,0.19-0.41,0.41v2.09c0,0.23,0.19,0.41,0.41,0.41h7.08C220.96,35.33,221.14,35.52,221.14,35.75z"/>
	<path class="st0" d="M250.27,34.58h-1.7c-0.23,0-0.41,0.19-0.41,0.41v3.41c0,0.23-0.19,0.41-0.41,0.41h-3.45
		c-0.23,0-0.41-0.19-0.41-0.41V23.29c0-0.23,0.19-0.41,0.41-0.41h6.5c4.13,0,6.72,2.25,6.72,5.9c0,2.18-0.94,3.84-2.59,4.82
		c-0.2,0.12-0.26,0.38-0.13,0.58l2.61,4c0.18,0.28-0.02,0.64-0.35,0.64h-3.59c-0.14,0-0.27-0.07-0.35-0.19l-2.5-3.86
		C250.54,34.65,250.41,34.58,250.27,34.58z M250.54,26.43h-1.96c-0.23,0-0.41,0.19-0.41,0.41v3.84c0,0.23,0.19,0.41,0.41,0.41h1.96
		c1.77,0,2.66-0.86,2.66-2.32C253.19,27.3,252.31,26.43,250.54,26.43z"/>
	<path class="st0" d="M269.04,33.21v5.19c0,0.23-0.19,0.41-0.41,0.41h-3.45c-0.23,0-0.41-0.19-0.41-0.41v-5.26
		c0-0.07-0.02-0.14-0.05-0.2l-5.37-9.44c-0.16-0.28,0.04-0.62,0.36-0.62h3.57c0.15,0,0.29,0.08,0.36,0.21l3.11,5.48
		c0.16,0.28,0.56,0.28,0.72,0l3.11-5.48c0.07-0.13,0.21-0.21,0.36-0.21h3.2c0.32,0,0.52,0.34,0.36,0.62l-5.39,9.51
		C269.06,33.07,269.04,33.14,269.04,33.21z"/>
	<g>
		<path class="st0" d="M223.85,30.72c0.16-4.88,3.96-8.33,8.94-8.16s8.54,3.86,8.38,8.74s-3.96,8.33-8.94,8.16
			C227.24,39.29,223.68,35.59,223.85,30.72z M236.72,31.15c0.09-2.81-1.69-4.71-4.05-4.78c-2.36-0.08-4.27,1.69-4.36,4.5
			c-0.09,2.81,1.69,4.71,4.05,4.78C234.72,35.73,236.63,33.96,236.72,31.15z"/>
	</g>
</g>
<g>
	<g>
		<ellipse class="st2" cx="47.13" cy="38.82" rx="21.09" ry="28.95"/>
		<path class="st1" d="M56.45,8.4c-3.25,0-6.38,0.52-9.32,1.46c12.23,3.94,21.09,15.41,21.09,28.95s-8.86,25.01-21.09,28.95
			c2.94,0.95,6.07,1.46,9.32,1.46c16.8,0,30.41-13.62,30.41-30.41S73.24,8.4,56.45,8.4z"/>
		<path class="st0" d="M26.04,38.82c0-13.54,8.86-25.01,21.09-28.95c-2.94-0.95-6.07-1.46-9.32-1.46C21.01,8.4,7.4,22.02,7.4,38.82
			s13.62,30.41,30.41,30.41c3.25,0,6.38-0.52,9.32-1.46C34.89,63.83,26.04,52.36,26.04,38.82z"/>
	</g>
	<g>
		<path class="st1" d="M48.55,34.55h3.77c0.16,0,0.29,0.13,0.29,0.29v11.44c0,0.16,0.13,0.29,0.29,0.29h3.42
			c0.16,0,0.29-0.13,0.29-0.29V34.84c0-0.16,0.13-0.29,0.29-0.29h3.74c0.16,0,0.29-0.13,0.29-0.29v-2.91c0-0.16-0.13-0.29-0.29-0.29
			H48.55c-0.16,0-0.29,0.13-0.29,0.29v2.91C48.26,34.42,48.39,34.55,48.55,34.55z"/>
		<path class="st0" d="M35.33,46.57h3.42c0.16,0,0.29-0.13,0.29-0.29V40.7c0-0.16,0.13-0.29,0.29-0.29h6.63
			c0.16,0,0.29-0.13,0.29-0.29V37.3c0-0.16-0.13-0.29-0.29-0.29h-6.63c-0.16,0-0.29-0.13-0.29-0.29v-1.88
			c0-0.16,0.13-0.29,0.29-0.29h6.79c0.16,0,0.29-0.13,0.29-0.29v-2.91c0-0.16-0.13-0.29-0.29-0.29H35.33
			c-0.16,0-0.29,0.13-0.29,0.29v14.93C35.04,46.44,35.17,46.57,35.33,46.57z"/>
	</g>
</g>
</svg>
