<svg xmlns="http://www.w3.org/2000/svg" width="35" height="35" viewBox="0 0 35 35">
  <g id="User_default" data-name="User default" transform="translate(-696.5 -1013)">
    <rect id="Rectangle_18886" data-name="Rectangle 18886" width="35" height="35" rx="5" transform="translate(696.5 1013)" fill="#f9f9f9"/>
    <g id="user" transform="translate(706.849 1022)" opacity="0.5">
      <path id="Path_13566" data-name="Path 13566" d="M91.161,8.259a4,4,0,0,0,2.92-1.21,4,4,0,0,0,1.21-2.92,4,4,0,0,0-1.21-2.92,4.129,4.129,0,0,0-5.839,0,4,4,0,0,0-1.21,2.92,4,4,0,0,0,1.21,2.92A4,4,0,0,0,91.161,8.259Zm0,0" transform="translate(-84.117)" fill="#cad1d3"/>
      <path id="Path_13567" data-name="Path 13567" d="M14.269,252.218a10.2,10.2,0,0,0-.139-1.083,8.535,8.535,0,0,0-.266-1.089,5.38,5.38,0,0,0-.448-1.016,3.833,3.833,0,0,0-.675-.88,2.978,2.978,0,0,0-.97-.609,3.352,3.352,0,0,0-1.238-.224,1.257,1.257,0,0,0-.671.285c-.2.131-.436.283-.7.451a4.008,4.008,0,0,1-.9.4,3.513,3.513,0,0,1-2.213,0,4,4,0,0,1-.9-.4c-.26-.166-.5-.318-.7-.451a1.255,1.255,0,0,0-.671-.285,3.347,3.347,0,0,0-1.238.224,2.974,2.974,0,0,0-.97.609,3.834,3.834,0,0,0-.675.88,5.391,5.391,0,0,0-.448,1.016,8.556,8.556,0,0,0-.266,1.089,10.164,10.164,0,0,0-.139,1.084c-.023.328-.034.669-.034,1.012a2.847,2.847,0,0,0,.846,2.154,3.044,3.044,0,0,0,2.179.795H11.28a3.043,3.043,0,0,0,2.179-.795,2.846,2.846,0,0,0,.846-2.154c0-.345-.012-.686-.035-1.013Zm0,0" transform="translate(0 -239.034)" fill="#cad1d3"/>
    </g>
  </g>
</svg>
