<svg xmlns="http://www.w3.org/2000/svg" width="19.502" height="19.48" viewBox="0 0 19.502 19.48">
  <path id="Search" d="M41.279,40.339l-3.963-3.93a8.716,8.716,0,0,0-.47-11.856A8.59,8.59,0,0,0,30.7,22a8.733,8.733,0,1,0,5.676,15.349l3.963,3.963a.638.638,0,0,0,.437.168.663.663,0,0,0,.47-.2A.679.679,0,0,0,41.279,40.339Zm-15.819-4.4a7.234,7.234,0,0,1-2.15-5.206,7.511,7.511,0,0,1,2.15-5.24,7.311,7.311,0,0,1,5.24-2.15,7.389,7.389,0,1,1-5.24,12.6Z" transform="translate(-21.95 -22)" fill="#88969f"/>
</svg>
